<?xml version="1.0" encoding="utf-8"?>
<!-- Generator: Adobe Illustrator 28.0.0, SVG Export Plug-In . SVG Version: 6.00 Build 0)  -->
<svg version="1.0" id="Layer_1" xmlns="http://www.w3.org/2000/svg" xmlns:xlink="http://www.w3.org/1999/xlink" x="0px" y="0px"
	 viewBox="0 0 500 500" enable-background="new 0 0 500 500" xml:space="preserve">
<g>
	<g id="_x32_67_x2C__Map_x2C__Compass_x2C__Navigation_x2C__Location">
		<g>
			<path fill="#7B61FF" d="M258.77,213.67c0.54-0.54,0.54-1.08,1.08-1.08l15.63-8.62l-15.63-8.62c-0.54-0.54-1.08-0.54-1.08-1.08
				l-8.62-15.63l-8.62,15.63c-0.54,0.54-0.54,1.08-1.08,1.08l-15.63,8.62l15.63,8.62c0.54,0.54,1.08,0.54,1.08,1.08l8.62,15.63
				L258.77,213.67z"/>
			<path fill="#7B61FF" d="M207.59,324.13c7.54,12.93,16.16,26.94,24.24,40.95c7.01,11.86,13.48,21.56,16.71,27.48
				c0,0.54,0.54,0.54,0.54,1.08c3.24-4.85,8.08-13.47,14.55-24.79c0.54-1.08,1.61-2.69,2.16-3.77c4.85-7.54,9.16-15.63,13.47-22.63
				c3.77-5.92,7-12.39,10.24-18.32c51.73-89.45,59.27-113.15,59.27-119.62c0-53.89-45.26-97.53-100.76-97.53
				s-100.76,43.65-100.76,97.53c0,6.47,7,29.1,53.34,108.84C203.28,317.13,205.43,320.9,207.59,324.13z M180.64,205.05
				c0-37.18,30.18-67.89,67.9-67.89c37.72,0,67.89,30.17,67.89,67.89s-30.17,67.89-67.89,67.89
				C210.82,272.94,180.64,242.23,180.64,205.05z"/>
			<path fill="#7B61FF" d="M309.43,205.05c0-33.41-27.48-60.89-60.89-60.89s-60.89,26.94-60.89,60.89
				c0,33.41,27.48,60.89,60.89,60.89S309.43,238.45,309.43,205.05z M246.92,237.92l-10.78-19.94l-19.94-10.78
				c-1.08-0.54-1.61-1.62-1.61-2.69s0.54-2.16,1.61-2.7l19.94-10.77l10.78-19.94c0.54-1.08,1.62-1.62,2.69-1.62
				c1.08,0,2.16,0.54,2.7,1.62l10.77,19.94l19.94,10.77c1.08,0.54,1.62,1.62,1.62,2.7s-0.54,2.16-1.62,2.69l-19.94,10.78
				l-10.77,19.94c-0.54,1.08-1.62,1.62-2.7,1.62C249.08,240.07,247.46,238.99,246.92,237.92z"/>
		</g>
	</g>
	<g id="Layer_1_00000124143684564093377740000000567605525130528139_">
	</g>
</g>
<g>
	<path fill="#7B61FF" d="M688.21,110.85c-32.02,0-58.63,26.11-58.63,58.63s26.61,58.63,58.63,58.63c32.03,0,58.63-26.61,58.63-58.63
		C746.84,137.46,720.23,110.85,688.21,110.85z M729.59,173.42c-0.49,0.99-1.48,1.97-2.96,1.97h-12.32v24.64
		c0,1.47-0.99,2.95-2.96,2.95h-40.89c-1.48,0-2.96-1.48-2.96-2.95v-24.64H655.2c-1.48,0-2.46-0.98-2.96-1.97
		c-0.49-0.98,0-2.46,0.99-3.45l35.97-33.51c0.99-0.98,2.96-0.98,4.43,0l35.97,33.51C729.59,170.96,730.08,172.44,729.59,173.42z"/>
	<path fill="#7B61FF" d="M662.59,169.49h7.39c1.48,0,3.45,0.98,3.45,2.95v25.13h34.49v-25.13c0-1.48,1.48-2.95,3.45-2.95h7.39
		l-28.08-26.11L662.59,169.49z"/>
</g>
</svg>
